# xmcd
#
# Track frame offsets: 
#        150
#        22727
#        44527
#        62177
#        80929
#        103300
#        121992
#        140989
#        154837
#        174553
#        187941
#        200716
#        223114
#
# Disc length: 3437 seconds
#
# Revision: 2
# Processed by: cddbd v1.5.2PL0 Copyright (c) Steve Scherf et al.
# Submitted via: ExactAudioCopy v0.95b4
#
DISCID=c80d6b0d
DTITLE=Butch Hancock - War And Peace
DYEAR=2006
DGENRE=Country
TTITLE0=Give Them Water
TTITLE1=Damage Done
TTITLE2=When The Good and The Bad Get Ugly
TTITLE3=Toast
TTITLE4=Old Man, Old Man
TTITLE5=The Devil In Us All
TTITLE6=The Master Game
TTITLE7=Road Map For The Blues
TTITLE8=Between Wars
TTITLE9=Cast The Devils Out
TTITLE10=Brother Won't You Shake My Hand
TTITLE11=Pot Of Glue
TTITLE12=That Great Election Day
EXTD=
EXTT0=
EXTT1=
EXTT2=
EXTT3=
EXTT4=
EXTT5=
EXTT6=
EXTT7=
EXTT8=
EXTT9=
EXTT10=
EXTT11=
EXTT12=
PLAYORDER=
